<svg width="315" height="536" viewBox="0 0 315 536" fill="none" xmlns="http://www.w3.org/2000/svg">
<path d="M145 169L45 200C35 193.333 25 184 15 172C5 160 7.07805e-07 143.333 7.07805e-07 122C7.07805e-07 82 24.3333 54 73 38L185 -9.53674e-06H222C250.667 -9.53674e-06 273.333 8.33332 290 25C306.667 41.6667 315 64.3333 315 93V614C307.667 615.333 296.667 617 282 619C268 621.667 253.667 623 239 623C224.333 623 211 622 199 620C187.667 618 178 614 170 608C162 602 155.667 594 151 584C147 573.333 145 559.667 145 543V169Z" fill="url(#paint0_linear_415_1552)" fill-opacity="0.62"/>
<defs>
<linearGradient id="paint0_linear_415_1552" x1="217.5" y1="-435" x2="1192.83" y2="60.8891" gradientUnits="userSpaceOnUse">
<stop stop-color="#81D8FE"/>
<stop offset="1" stop-color="#132EF9" stop-opacity="0.22"/>
</linearGradient>
</defs>
</svg>
