<svg width="452" height="544" viewBox="0 0 452 544" fill="none" xmlns="http://www.w3.org/2000/svg">
<path d="M206 -2.57492e-05C244 -2.57492e-05 277.667 4.99997 307 15C336.333 24.3333 361.333 37.3333 382 54C402.667 70.6666 418.333 90.3333 429 113C439.667 135.667 445 160 445 186C445 256 405.333 322.667 326 386L195 491H435C439 498.333 442.667 507.667 446 519C450 530.333 452 542.667 452 556C452 580 446.667 597.333 436 608C425.333 618 411.333 623 394 623H47C32.3333 613 20.6667 600.333 12 585C4 569 1.49012e-07 550.333 1.49012e-07 529C1.49012e-07 506.333 4.66667 487.333 14 472C23.3333 456 33.6667 443.333 45 434L183 316C200.333 301.333 214.667 288.333 226 277C237.333 265 246.333 254.333 253 245C260.333 235.667 265.333 227 268 219C271.333 211 273 203.333 273 196C273 177.333 264.667 162.667 248 152C232 141.333 212 136 188 136C161.333 136 137.333 140.333 116 149C95.3333 157 78 165.667 64 175C52.6667 167 43.3333 157 36 145C28.6667 133 25 119 25 103C25 68.3333 41.3333 42.6666 74 26C106.667 8.66665 150.667 -2.57492e-05 206 -2.57492e-05Z" fill="url(#paint0_linear_415_1671)" fill-opacity="0.62"/>
<defs>
<linearGradient id="paint0_linear_415_1671" x1="267.754" y1="-427" x2="1388.26" y2="331.152" gradientUnits="userSpaceOnUse">
<stop stop-color="#81D8FE"/>
<stop offset="1" stop-color="#132EF9" stop-opacity="0.22"/>
</linearGradient>
</defs>
</svg>
