<svg width="458" height="544" viewBox="0 0 458 544" fill="none" xmlns="http://www.w3.org/2000/svg">
<path d="M208 -2.57492e-05C284.667 -2.57492e-05 343 16 383 48C423 79.3333 443 121.667 443 175C443 207 434.333 234.333 417 257C400.333 279 380.333 295.667 357 307C371 312.333 384 319 396 327C408 335 418.667 345 428 357C437.333 369 444.667 383 450 399C455.333 415 458 433.667 458 455C458 483.667 451.667 509.333 439 532C427 554.667 410 574 388 590C366 606 339.667 618 309 626C279 634.667 246 639 210 639C140.667 639 88.3333 629.333 53 610C17.6667 590.667 3.72529e-07 566 3.72529e-07 536C3.72529e-07 518 4.33333 502.667 13 490C21.6667 476.667 32.3333 466.333 45 459C58.3333 468.333 76 478.333 98 489C120.667 499 150 504 186 504C220 504 245 498 261 486C277.667 474 286 458.333 286 439C286 419.667 279.333 405 266 395C253.333 385 231 380 199 380H105C100.333 372.667 96.3333 363.667 93 353C89.6667 342.333 88 329.667 88 315C88 299.667 89.3333 286.667 92 276C95.3333 264.667 99.6667 255.333 105 248H199C247 248 271 229.667 271 193C271 175.667 263.333 161.667 248 151C232.667 140.333 209.667 135 179 135C151.667 135 127.667 138.333 107 145C86.3333 151 69.3333 158.667 56 168C44.6667 160 35.3333 150.333 28 139C20.6667 127 17 113 17 97C17 63.6666 34.3333 39.3333 69 24C103.667 7.99997 150 -2.57492e-05 208 -2.57492e-05Z" fill="url(#paint0_linear_415_1936)" fill-opacity="0.62"/>
<defs>
<linearGradient id="paint0_linear_415_1936" x1="274.86" y1="-427" x2="1391.32" y2="321.196" gradientUnits="userSpaceOnUse">
<stop stop-color="#81D8FE"/>
<stop offset="1" stop-color="#132EF9" stop-opacity="0.22"/>
</linearGradient>
</defs>
</svg>
