<svg width="580" height="536" viewBox="0 0 580 536" fill="none" xmlns="http://www.w3.org/2000/svg">
<path d="M265 14C277.667 9.99996 292 6.66663 308 4C324.667 1.33333 339.667 -9.53674e-06 353 -9.53674e-06C368.333 -9.53674e-06 383 1.66666 397 4.99999C411.667 7.66666 424.667 12.6667 436 20C447.333 26.6666 456.333 36 463 48C469.667 60 473 75 473 93V359H562C566 366.333 570 376 574 388C578 400 580 412.667 580 426C580 451.333 574.333 469.333 563 480C551.667 490.667 537.333 496 520 496H473V614C465.667 615.333 454.667 617 440 619C425.333 621.667 411.333 623 398 623C383.333 623 370.333 622.333 359 621C347.667 619.667 338 616.667 330 612C322.667 606.667 317 599.333 313 590C309 580.667 307 568 307 552V496H56C40.6667 488 27.3333 476.333 16 461C5.33333 445 1.57952e-06 425.667 1.57952e-06 403C1.57952e-06 390.333 1.66667 376.333 5 361C8.33333 345.667 14 332.333 22 321L265 14ZM316 171H313L180 359H316V171Z" fill="url(#paint0_linear_415_2053)" fill-opacity="0.62"/>
<defs>
<linearGradient id="paint0_linear_415_2053" x1="330.38" y1="-435" x2="1503.05" y2="485.888" gradientUnits="userSpaceOnUse">
<stop stop-color="#81D8FE"/>
<stop offset="1" stop-color="#132EF9" stop-opacity="0.22"/>
</linearGradient>
</defs>
</svg>
