<svg width="452" height="529" viewBox="0 0 452 529" fill="none" xmlns="http://www.w3.org/2000/svg">
<path d="M205 624C174.333 624 146.333 621.667 121 617C96.3333 612.333 75 605.333 57 596C39 586.667 25 575.333 15 562C5 548 1.78814e-06 532 1.78814e-06 514C1.78814e-06 495.333 5.33334 479.667 16 467C26.6667 454.333 38.6667 444.333 52 437C70.6667 451 90.6667 463.333 112 474C133.333 484 160.333 489 193 489C224.333 489 246.667 482 260 468C273.333 454 280 437 280 417C280 397.667 274 381.667 262 369C250.667 356.333 230.667 350 202 350C184 350 169 352 157 356C145 360 131.333 365.667 116 373C83.3333 371.667 57.3333 363 38 347C19.3333 330.333 10 305 10 271C10 269 10 266.667 10 264C10 260.667 10.3333 254.333 11 245L23 93C25 64.3333 34 41.6666 50 25C66 8.33331 88.3333 -4.00543e-05 117 -4.00543e-05H405C409 7.33332 413 17 417 28.9999C421 40.9999 423 53.6666 423 67C423 92.3333 417.333 110.333 406 121C394.667 131.667 380.333 137 363 137H171L164 231C176.667 227.667 189.333 224.667 202 222C215.333 219.333 232 218 252 218C286.667 218 316.667 223.333 342 234C367.333 244 388 258 404 276C420.667 294 432.667 315 440 339C448 363 452 388.667 452 416C452 443.333 447.333 469.667 438 495C428.667 520.333 414 542.667 394 562C374 580.667 348.333 595.667 317 607C286.333 618.333 249 624 205 624Z" fill="url(#paint0_linear_415_2178)" fill-opacity="0.62"/>
<defs>
<linearGradient id="paint0_linear_415_2178" x1="257.754" y1="-442" x2="1378.26" y2="316.152" gradientUnits="userSpaceOnUse">
<stop stop-color="#81D8FE"/>
<stop offset="1" stop-color="#132EF9" stop-opacity="0.22"/>
</linearGradient>
</defs>
</svg>
