<svg width="317" height="241" viewBox="0 0 317 241" fill="none" xmlns="http://www.w3.org/2000/svg">
<path d="M258.539 150.821H54.67C53.2783 150.819 51.9441 150.22 50.9601 149.153C49.976 148.087 49.4225 146.641 49.4209 145.133V8.92466C49.422 7.81994 49.8276 6.76083 50.5485 5.97967C51.2694 5.1985 52.2469 4.75908 53.2664 4.75781H259.876C260.913 4.75909 261.908 5.2061 262.641 6.00077C263.374 6.79544 263.787 7.87287 263.788 8.9967V145.133C263.787 146.641 263.233 148.087 262.249 149.153C261.265 150.22 259.931 150.819 258.539 150.821Z" fill="#F2F2F2"/>
<path d="M251.102 142.767H61.1019C58.3167 142.767 56.0508 140.468 56.0508 137.642V19.0295C56.0508 16.9337 57.7298 15.2285 59.7938 15.2285H252.349C254.447 15.2285 256.154 16.9618 256.154 19.0921V137.642C256.154 140.468 253.888 142.767 251.102 142.767Z" fill="white"/>
<path d="M263.716 8.60029H49.3481V5.70469C49.3502 4.19177 49.906 2.7415 50.8936 1.67203C51.8812 0.602566 53.2201 0.00124992 54.6164 0H258.448C259.844 0.00124264 261.183 0.602556 262.171 1.67202C263.158 2.74149 263.714 4.19177 263.716 5.70469V8.60029Z" fill="#CCCCCC"/>
<path d="M58.9222 5.78696C59.6748 5.78696 60.2849 5.12591 60.2849 4.31047C60.2849 3.49503 59.6748 2.83398 58.9222 2.83398C58.1697 2.83398 57.5596 3.49503 57.5596 4.31047C57.5596 5.12591 58.1697 5.78696 58.9222 5.78696Z" fill="white"/>
<path d="M64.0941 5.78696C64.8467 5.78696 65.4568 5.12591 65.4568 4.31047C65.4568 3.49503 64.8467 2.83398 64.0941 2.83398C63.3415 2.83398 62.7314 3.49503 62.7314 4.31047C62.7314 5.12591 63.3415 5.78696 64.0941 5.78696Z" fill="white"/>
<path d="M69.2665 5.78696C70.0191 5.78696 70.6292 5.12591 70.6292 4.31047C70.6292 3.49503 70.0191 2.83398 69.2665 2.83398C68.5139 2.83398 67.9038 3.49503 67.9038 4.31047C67.9038 5.12591 68.5139 5.78696 69.2665 5.78696Z" fill="white"/>
<path d="M230.19 122.875H82.9476C81.4716 122.873 80.0565 122.237 79.0128 121.106C77.9691 119.975 77.382 118.442 77.3804 116.842V39.9217C77.3816 38.7256 77.8207 37.5789 78.6012 36.7331C79.3818 35.8873 80.4401 35.4115 81.544 35.4102H231.527C232.648 35.4116 233.724 35.8949 234.517 36.7542C235.31 37.6135 235.756 38.7785 235.757 39.9937V116.842C235.755 118.442 235.168 119.975 234.125 121.106C233.081 122.237 231.666 122.873 230.19 122.875ZM81.544 36.0996C80.6088 36.1007 79.7122 36.5038 79.0509 37.2203C78.3896 37.9369 78.0177 38.9084 78.0166 39.9217V116.842C78.0181 118.259 78.5381 119.617 79.4625 120.619C80.3869 121.62 81.6403 122.184 82.9476 122.185H230.19C231.497 122.184 232.75 121.62 233.675 120.619C234.599 119.617 235.119 118.259 235.121 116.842V39.9937C235.12 38.9613 234.741 37.9715 234.067 37.2414C233.393 36.5114 232.48 36.1007 231.527 36.0996H81.544Z" fill="#CCCCCC"/>
<path d="M88.0359 116.843H225.098C226.448 116.843 227.742 116.262 228.697 115.227C229.652 114.193 230.188 112.79 230.188 111.328V47.0249C230.188 45.5622 229.652 44.1594 228.697 43.1251C227.742 42.0908 226.448 41.5098 225.098 41.5098H88.0359C86.6859 41.5098 85.3912 42.0908 84.4366 43.1251C83.4821 44.1594 82.9458 45.5622 82.9458 47.0249V111.328C82.9458 112.79 83.4821 114.193 84.4366 115.227C85.3912 116.262 86.6859 116.843 88.0359 116.843Z" fill="#F2F2F2"/>
<path d="M103.6 60.2182C105.181 60.2182 106.463 58.8293 106.463 57.116C106.463 55.4026 105.181 54.0137 103.6 54.0137C102.019 54.0137 100.737 55.4026 100.737 57.116C100.737 58.8293 102.019 60.2182 103.6 60.2182Z" fill="#CCCCCC"/>
<path d="M103.6 71.937C105.181 71.937 106.463 70.548 106.463 68.8347C106.463 67.1214 105.181 65.7324 103.6 65.7324C102.019 65.7324 100.737 67.1214 100.737 68.8347C100.737 70.548 102.019 71.937 103.6 71.937Z" fill="#CCCCCC"/>
<path d="M103.6 83.6557C105.181 83.6557 106.463 82.2668 106.463 80.5535C106.463 78.8401 105.181 77.4512 103.6 77.4512C102.019 77.4512 100.737 78.8401 100.737 80.5535C100.737 82.2668 102.019 83.6557 103.6 83.6557Z" fill="#CCCCCC"/>
<path d="M103.6 95.3764C105.181 95.3764 106.463 93.9875 106.463 92.2742C106.463 90.5608 105.181 89.1719 103.6 89.1719C102.019 89.1719 100.737 90.5608 100.737 92.2742C100.737 93.9875 102.019 95.3764 103.6 95.3764Z" fill="#CCCCCC"/>
<path d="M212.081 57.4609H117.915C117.83 57.4609 117.75 57.4246 117.69 57.3599C117.63 57.2953 117.597 57.2076 117.597 57.1162C117.597 57.0248 117.63 56.9371 117.69 56.8724C117.75 56.8078 117.83 56.7715 117.915 56.7715H212.081C212.165 56.7715 212.246 56.8078 212.306 56.8724C212.365 56.9371 212.399 57.0248 212.399 57.1162C212.399 57.2076 212.365 57.2953 212.306 57.3599C212.246 57.4246 212.165 57.4609 212.081 57.4609Z" fill="#CCCCCC"/>
<path d="M212.081 69.1796H117.915C117.83 69.1796 117.75 69.1433 117.69 69.0787C117.63 69.014 117.597 68.9264 117.597 68.8349C117.597 68.7435 117.63 68.6558 117.69 68.5912C117.75 68.5266 117.83 68.4902 117.915 68.4902H212.081C212.165 68.4902 212.246 68.5266 212.306 68.5912C212.365 68.6558 212.399 68.7435 212.399 68.8349C212.399 68.9264 212.365 69.014 212.306 69.0787C212.246 69.1433 212.165 69.1796 212.081 69.1796Z" fill="#CCCCCC"/>
<path d="M212.081 80.9003H117.915C117.83 80.9003 117.75 80.864 117.69 80.7994C117.63 80.7347 117.597 80.6471 117.597 80.5556C117.597 80.4642 117.63 80.3765 117.69 80.3119C117.75 80.2473 117.83 80.2109 117.915 80.2109H212.081C212.165 80.2109 212.246 80.2473 212.306 80.3119C212.365 80.3765 212.399 80.4642 212.399 80.5556C212.399 80.6471 212.365 80.7347 212.306 80.7994C212.246 80.864 212.165 80.9003 212.081 80.9003Z" fill="#CCCCCC"/>
<path d="M212.081 92.6191H117.915C117.83 92.6191 117.75 92.5828 117.69 92.5181C117.63 92.4535 117.597 92.3658 117.597 92.2744C117.597 92.183 117.63 92.0953 117.69 92.0307C117.75 91.966 117.83 91.9297 117.915 91.9297H212.081C212.165 91.9297 212.246 91.966 212.306 92.0307C212.365 92.0953 212.399 92.183 212.399 92.2744C212.399 92.3658 212.365 92.4535 212.306 92.5181C212.246 92.5828 212.165 92.6191 212.081 92.6191Z" fill="#CCCCCC"/>
<path d="M135.73 104.338H126.504C126.083 104.337 125.678 104.156 125.38 103.832C125.082 103.509 124.914 103.071 124.914 102.614V93.3075C124.914 92.8505 125.082 92.4125 125.38 92.0894C125.678 91.7663 126.083 91.5845 126.504 91.584H135.73C136.152 91.5845 136.556 91.7663 136.854 92.0894C137.152 92.4125 137.32 92.8505 137.321 93.3075V102.614C137.32 103.071 137.152 103.509 136.854 103.832C136.556 104.156 136.152 104.337 135.73 104.338Z" fill="#F2AF3F"/>
<path d="M156.409 104.339H147.183C146.761 104.338 146.357 104.157 146.059 103.833C145.761 103.51 145.593 103.072 145.592 102.615V81.5887C145.593 81.1318 145.761 80.6937 146.059 80.3706C146.357 80.0475 146.761 79.8658 147.183 79.8652H156.409C156.83 79.8658 157.235 80.0475 157.533 80.3706C157.831 80.6937 157.999 81.1318 157.999 81.5887V102.615C157.999 103.072 157.831 103.51 157.533 103.833C157.235 104.157 156.83 104.338 156.409 104.339Z" fill="#EB4335"/>
<path d="M177.406 104.338H168.18C167.758 104.337 167.354 104.156 167.056 103.832C166.758 103.509 166.59 103.071 166.589 102.614V69.868C166.59 69.4111 166.758 68.973 167.056 68.6499C167.354 68.3268 167.758 68.1451 168.18 68.1445H177.406C177.827 68.1451 178.232 68.3268 178.53 68.6499C178.828 68.973 178.996 69.4111 178.996 69.868V102.614C178.996 103.071 178.828 103.509 178.53 103.832C178.232 104.156 177.827 104.337 177.406 104.338Z" fill="#34A853"/>
<path d="M199.038 104.34H189.812C189.391 104.339 188.986 104.158 188.688 103.834C188.39 103.511 188.222 103.073 188.222 102.616V58.495C188.222 58.038 188.39 57.6 188.688 57.2769C188.986 56.9538 189.391 56.772 189.812 56.7715H199.038C199.46 56.772 199.864 56.9538 200.162 57.2769C200.46 57.6 200.628 58.038 200.629 58.495V102.616C200.628 103.073 200.46 103.511 200.162 103.834C199.864 104.158 199.46 104.339 199.038 104.34Z" fill="#6C63FF"/>
<path d="M212.081 104.338H117.915C117.83 104.338 117.75 104.302 117.69 104.237C117.63 104.172 117.597 104.085 117.597 103.993C117.597 103.902 117.63 103.814 117.69 103.749C117.75 103.685 117.83 103.648 117.915 103.648H212.081C212.165 103.648 212.246 103.685 212.306 103.749C212.365 103.814 212.399 103.902 212.399 103.993C212.399 104.085 212.365 104.172 212.306 104.237C212.246 104.302 212.165 104.338 212.081 104.338Z" fill="#3F3D56"/>
<path d="M253.455 168.641C253.713 168.218 254.053 167.861 254.452 167.597C254.85 167.332 255.298 167.165 255.762 167.107C256.227 167.05 256.698 167.104 257.141 167.265C257.585 167.426 257.99 167.691 258.329 168.04L268.431 162.391L267.803 168.755L258.306 173.144C257.727 173.722 256.972 174.05 256.185 174.065C255.397 174.08 254.632 173.782 254.034 173.227C253.436 172.672 253.047 171.898 252.94 171.053C252.834 170.208 253.017 169.349 253.455 168.641Z" fill="#FFB8B8"/>
<path d="M262.146 171.015C261.917 170.82 261.747 170.554 261.661 170.253L260.858 167.44C260.771 167.135 260.773 166.809 260.864 166.506C260.954 166.203 261.128 165.937 261.362 165.744L269.55 159.043L278.418 141.218C278.79 140.699 279.252 140.265 279.778 139.94C280.304 139.616 280.884 139.406 281.485 139.324C282.086 139.242 282.696 139.289 283.28 139.463C283.864 139.636 284.411 139.933 284.889 140.335C285.368 140.738 285.768 141.238 286.068 141.809C286.368 142.379 286.561 143.007 286.637 143.658C286.712 144.31 286.669 144.97 286.509 145.603C286.348 146.236 286.075 146.829 285.703 147.347L280.658 158.884C279.128 162.386 276.475 165.166 273.194 166.708L263.598 171.217C263.414 171.304 263.215 171.347 263.013 171.345C262.812 171.343 262.614 171.294 262.431 171.204C262.33 171.153 262.234 171.09 262.146 171.015Z" fill="#E07748"/>
<path d="M285.927 133.778C290.242 133.778 293.74 129.988 293.74 125.312C293.74 120.636 290.242 116.846 285.927 116.846C281.612 116.846 278.113 120.636 278.113 125.312C278.113 129.988 281.612 133.778 285.927 133.778Z" fill="#FFB8B8"/>
<path d="M282.756 236.371L278.856 236.37L277.001 220.07L282.758 220.071L282.756 236.371Z" fill="#FFB8B8"/>
<path d="M276.07 235.164H283.592V240.296H271.334C271.334 239.622 271.457 238.954 271.695 238.332C271.933 237.709 272.282 237.144 272.722 236.667C273.161 236.191 273.683 235.813 274.258 235.555C274.833 235.297 275.448 235.164 276.07 235.164Z" fill="#2F2E41"/>
<path d="M295.482 236.373L291.583 236.373L289.728 220.072L295.484 220.073L295.482 236.373Z" fill="#FFB8B8"/>
<path d="M288.795 235.164H296.317V240.296H284.06C284.06 239.622 284.182 238.954 284.42 238.332C284.658 237.709 285.007 237.144 285.447 236.667C285.886 236.191 286.409 235.813 286.983 235.555C287.558 235.297 288.174 235.164 288.795 235.164Z" fill="#2F2E41"/>
<path d="M295.767 232.238L291.196 232.238C290.882 232.237 290.576 232.125 290.326 231.917C290.076 231.71 289.897 231.419 289.814 231.09L283.236 204.651C283.225 204.61 283.201 204.575 283.168 204.552C283.135 204.528 283.095 204.519 283.056 204.526C283.018 204.533 282.982 204.555 282.958 204.589C282.933 204.622 282.921 204.664 282.923 204.707L284.252 229.781C284.264 230.003 284.232 230.224 284.157 230.431C284.083 230.638 283.969 230.826 283.822 230.981C283.675 231.136 283.499 231.255 283.307 231.33C283.114 231.405 282.908 231.434 282.704 231.415L277.567 230.951C277.238 230.921 276.928 230.768 276.691 230.519C276.454 230.27 276.303 229.94 276.264 229.585L271.584 176.934L273.395 178.111L290.36 174.99L297.186 230.482C297.213 230.701 297.197 230.924 297.138 231.135C297.079 231.347 296.979 231.542 296.844 231.709C296.71 231.875 296.544 232.008 296.358 232.099C296.173 232.191 295.971 232.238 295.767 232.238H295.767Z" fill="#2F2E41"/>
<path d="M277.258 182.489C275.386 182.473 273.553 181.913 271.948 180.869C271.701 180.711 271.503 180.475 271.382 180.192C271.261 179.91 271.221 179.595 271.268 179.288C271.865 175.328 274.985 155.018 277.824 143.946C278.981 139.436 281.537 137.007 285.423 136.727C291.108 136.323 296.16 141.141 296.686 147.481C297.614 158.666 293.844 174.557 292.18 180.871C292.116 181.115 291.997 181.337 291.835 181.52C291.672 181.702 291.471 181.839 291.248 181.917C291.025 181.996 290.788 182.014 290.558 181.97C290.327 181.926 290.11 181.822 289.926 181.666L286.534 178.807C286.325 178.634 286.067 178.546 285.805 178.558C285.542 178.57 285.292 178.681 285.097 178.872C282.238 181.635 279.523 182.489 277.258 182.489Z" fill="#E07748"/>
<path opacity="0.2" d="M288.474 152.957L291.337 166.056L287.201 177.086L290.064 166.401L288.474 152.957Z" fill="black"/>
<path d="M290.385 132.273C291.08 132.287 291.771 132.152 292.417 131.875C292.702 131.756 292.997 131.658 293.281 131.54C295.788 130.49 297.44 127.597 297.499 124.685C297.559 121.773 296.167 118.947 294.101 117.084C292.034 115.222 289.358 114.265 286.677 114.044C283.79 113.806 280.539 114.599 278.926 117.204C278.496 117.897 278.196 118.739 278.45 119.576C278.527 119.829 278.663 120.055 278.845 120.233C279.566 120.928 280.284 120.405 281.018 120.359C282.028 120.296 282.934 121.181 283.26 122.219C283.586 123.256 283.443 124.398 283.179 125.456C282.979 126.092 282.853 126.753 282.803 127.424C282.782 127.76 282.84 128.096 282.973 128.401C283.105 128.706 283.307 128.97 283.56 129.166C284.191 129.579 285.019 129.34 285.65 128.928C286.281 128.515 286.827 127.942 287.509 127.638C288.19 127.335 289.106 127.402 289.503 128.075C289.629 128.32 289.715 128.587 289.755 128.864C290.111 130.62 290.029 130.517 290.385 132.273Z" fill="#2F2E41"/>
<path d="M278.274 224.549L229.347 206.086C228.507 205.768 227.818 205.103 227.431 204.235C227.044 203.367 226.991 202.369 227.282 201.459L239.996 161.901C240.211 161.235 240.662 160.688 241.248 160.381C241.835 160.074 242.51 160.031 243.126 160.263L293.706 179.349C294.332 179.586 294.845 180.082 295.134 180.729C295.422 181.375 295.462 182.12 295.245 182.798L282.545 222.312C282.251 223.221 281.637 223.968 280.836 224.387C280.036 224.806 279.114 224.865 278.274 224.549Z" fill="#E6E6E6"/>
<path d="M233.522 203.813L276.305 219.957C277.12 220.264 278.014 220.208 278.79 219.801C279.567 219.395 280.163 218.67 280.447 217.787L290.713 185.845C290.997 184.962 290.946 183.994 290.57 183.152C290.195 182.311 289.526 181.665 288.711 181.358L245.928 165.214C245.113 164.906 244.219 164.962 243.443 165.369C242.666 165.776 242.07 166.5 241.786 167.383L231.52 199.325C231.379 199.762 231.32 200.225 231.344 200.687C231.369 201.149 231.477 201.601 231.663 202.018C231.849 202.435 232.109 202.808 232.428 203.116C232.747 203.424 233.118 203.66 233.522 203.813Z" fill="white"/>
<path d="M244.265 181.369L242.146 180.569C242.031 180.526 241.937 180.435 241.884 180.316C241.831 180.197 241.823 180.061 241.863 179.936L242.601 177.64C242.641 177.516 242.725 177.414 242.835 177.356C242.944 177.299 243.071 177.291 243.186 177.334L245.304 178.134C245.419 178.177 245.513 178.268 245.566 178.387C245.619 178.506 245.627 178.642 245.587 178.767L244.849 181.063C244.809 181.187 244.725 181.289 244.615 181.347C244.506 181.404 244.38 181.412 244.265 181.369Z" fill="#6C63FF"/>
<path d="M242.354 187.318L240.235 186.518C240.12 186.475 240.026 186.384 239.973 186.265C239.92 186.146 239.913 186.01 239.953 185.885L240.691 183.589C240.731 183.465 240.815 183.363 240.924 183.305C241.034 183.248 241.16 183.24 241.275 183.283L243.394 184.083C243.509 184.126 243.603 184.217 243.656 184.336C243.709 184.455 243.716 184.591 243.676 184.716L242.938 187.012C242.898 187.136 242.814 187.238 242.704 187.296C242.595 187.353 242.469 187.361 242.354 187.318Z" fill="#EB4335"/>
<path d="M240.442 193.267L238.323 192.468C238.208 192.424 238.114 192.333 238.061 192.214C238.008 192.096 238.001 191.959 238.041 191.834L238.778 189.539C238.819 189.414 238.903 189.312 239.012 189.255C239.122 189.197 239.248 189.189 239.363 189.233L241.482 190.032C241.596 190.076 241.691 190.167 241.744 190.285C241.797 190.404 241.804 190.541 241.764 190.665L241.026 192.961C240.986 193.085 240.902 193.188 240.792 193.245C240.683 193.302 240.557 193.31 240.442 193.267Z" fill="#CCCCCC"/>
<path d="M258.503 185.454L248.294 181.602C248.237 181.581 248.184 181.547 248.139 181.504C248.094 181.461 248.057 181.408 248.031 181.349C248.005 181.29 247.989 181.226 247.986 181.161C247.982 181.096 247.991 181.03 248.01 180.968C248.03 180.907 248.061 180.85 248.101 180.801C248.142 180.752 248.19 180.712 248.245 180.684C248.299 180.656 248.358 180.639 248.418 180.636C248.479 180.632 248.539 180.641 248.596 180.663L258.805 184.515C258.862 184.536 258.914 184.57 258.96 184.613C259.005 184.657 259.042 184.709 259.068 184.768C259.094 184.827 259.11 184.891 259.113 184.956C259.117 185.022 259.108 185.087 259.088 185.149C259.068 185.21 259.038 185.267 258.997 185.316C258.957 185.365 258.909 185.405 258.854 185.433C258.8 185.462 258.741 185.478 258.68 185.482C258.62 185.485 258.56 185.476 258.503 185.454Z" fill="#CCCCCC"/>
<path d="M256.592 191.403L246.383 187.551C246.268 187.507 246.173 187.416 246.12 187.298C246.067 187.179 246.06 187.042 246.1 186.918C246.14 186.793 246.224 186.691 246.334 186.634C246.443 186.576 246.57 186.568 246.685 186.612L256.893 190.464C256.95 190.485 257.003 190.519 257.048 190.562C257.093 190.605 257.13 190.658 257.156 190.717C257.183 190.776 257.198 190.84 257.202 190.905C257.205 190.97 257.197 191.036 257.177 191.097C257.157 191.159 257.126 191.216 257.086 191.265C257.046 191.314 256.997 191.353 256.943 191.382C256.888 191.41 256.829 191.427 256.769 191.43C256.709 191.434 256.649 191.425 256.592 191.403Z" fill="#CCCCCC"/>
<path d="M254.678 197.35L244.469 193.498C244.354 193.455 244.26 193.364 244.207 193.245C244.154 193.126 244.147 192.99 244.187 192.865C244.227 192.74 244.311 192.638 244.42 192.581C244.53 192.523 244.656 192.516 244.771 192.559L254.98 196.411C255.095 196.455 255.189 196.546 255.242 196.664C255.295 196.783 255.302 196.92 255.262 197.044C255.222 197.169 255.138 197.271 255.029 197.328C254.919 197.386 254.793 197.394 254.678 197.35Z" fill="#CCCCCC"/>
<path d="M281.847 200.574C281.922 200.381 281.992 200.185 282.056 199.984C282.895 197.374 282.743 194.509 281.632 192.02C280.522 189.531 278.545 187.622 276.135 186.713L272.78 197.153L281.847 200.574Z" fill="#EB4335"/>
<path d="M271.804 197.789L275.159 187.35C273.386 186.68 271.471 186.588 269.65 187.084C267.829 187.58 266.181 188.643 264.911 190.141C263.641 191.64 262.803 193.508 262.501 195.516C262.199 197.524 262.446 199.584 263.211 201.442C263.977 203.3 265.228 204.875 266.809 205.971C268.391 207.068 270.234 207.64 272.111 207.615C273.989 207.591 275.819 206.971 277.376 205.833C278.932 204.695 280.147 203.088 280.871 201.211L271.804 197.789Z" fill="url(#paint0_linear_1069_17992)"/>
<path d="M283.817 182.811C283.779 182.306 283.844 181.798 284.007 181.323C284.17 180.848 284.427 180.417 284.76 180.061C285.093 179.706 285.493 179.433 285.934 179.264C286.375 179.094 286.844 179.031 287.31 179.079L292.042 167.879L295.172 173.307L290.199 183.111C290.073 183.953 289.665 184.715 289.054 185.254C288.444 185.792 287.672 186.069 286.885 186.032C286.099 185.995 285.352 185.647 284.786 185.053C284.221 184.459 283.876 183.662 283.817 182.811Z" fill="#FFB8B8"/>
<path d="M292.009 178.868C291.717 178.868 291.433 178.772 291.193 178.592L288.959 176.916C288.718 176.734 288.534 176.476 288.432 176.177C288.33 175.878 288.316 175.552 288.39 175.244L291.016 164.496L287.842 144.541C287.838 143.884 287.954 143.233 288.183 142.625C288.412 142.017 288.749 141.463 289.175 140.996C289.601 140.53 290.108 140.158 290.667 139.904C291.226 139.65 291.825 139.517 292.431 139.514C293.037 139.511 293.638 139.637 294.199 139.885C294.76 140.134 295.27 140.5 295.701 140.962C296.131 141.425 296.473 141.974 296.707 142.58C296.941 143.186 297.063 143.836 297.065 144.492L299.667 156.944C300.457 160.723 299.953 164.684 298.249 168.091L293.267 178.056C293.171 178.247 293.039 178.415 292.88 178.548C292.72 178.68 292.536 178.775 292.341 178.826C292.232 178.854 292.121 178.868 292.009 178.868Z" fill="#E07748"/>
<path d="M316.22 240.49H255.775C255.691 240.49 255.61 240.454 255.55 240.389C255.491 240.325 255.457 240.237 255.457 240.145C255.457 240.054 255.491 239.966 255.55 239.902C255.61 239.837 255.691 239.801 255.775 239.801H316.22C316.304 239.801 316.385 239.837 316.445 239.902C316.504 239.966 316.538 240.054 316.538 240.145C316.538 240.237 316.504 240.325 316.445 240.389C316.385 240.454 316.304 240.49 316.22 240.49Z" fill="#CCCCCC"/>
<path d="M156.055 236.2L159.956 236.2L161.811 219.9H156.055L156.055 236.2Z" fill="#A0616A"/>
<path d="M155.06 234.823L162.74 234.822H162.741C163.384 234.822 164.02 234.959 164.614 235.226C165.208 235.492 165.747 235.883 166.202 236.376C166.656 236.868 167.017 237.453 167.263 238.096C167.509 238.74 167.636 239.429 167.636 240.126V240.298L155.06 240.299L155.06 234.823Z" fill="#2F2E41"/>
<path d="M140.467 236.2L144.367 236.2L146.223 219.9H140.466L140.467 236.2Z" fill="#A0616A"/>
<path d="M139.472 234.823L147.153 234.822H147.153C147.796 234.822 148.432 234.959 149.026 235.226C149.62 235.492 150.16 235.883 150.614 236.376C151.069 236.868 151.429 237.453 151.675 238.096C151.921 238.74 152.048 239.429 152.048 240.126V240.298L139.472 240.299L139.472 234.823Z" fill="#2F2E41"/>
<path d="M156.833 123.352C161.148 123.352 164.647 119.562 164.647 114.886C164.647 110.21 161.148 106.42 156.833 106.42C152.518 106.42 149.02 110.21 149.02 114.886C149.02 119.562 152.518 123.352 156.833 123.352Z" fill="#A0616A"/>
<path d="M162.088 232.683H154.85C154.661 232.683 154.473 232.642 154.298 232.563C154.123 232.484 153.965 232.368 153.832 232.222C153.698 232.076 153.593 231.903 153.522 231.712C153.452 231.522 153.416 231.318 153.419 231.113L153.839 193.875C153.841 193.743 153.795 193.615 153.712 193.518C153.63 193.42 153.516 193.361 153.394 193.353C153.272 193.344 153.152 193.386 153.058 193.47C152.964 193.554 152.903 193.675 152.888 193.806L148.676 231.319C148.633 231.695 148.465 232.042 148.204 232.293C147.942 232.544 147.605 232.683 147.255 232.683H139.948C139.75 232.683 139.555 232.639 139.374 232.553C139.193 232.468 139.031 232.342 138.897 232.185C138.763 232.028 138.66 231.843 138.595 231.641C138.531 231.439 138.505 231.224 138.52 231.011L143.346 164.114L143.477 164.098L166.582 161.395L163.518 231.206C163.501 231.604 163.342 231.98 163.076 232.255C162.81 232.53 162.456 232.684 162.088 232.683Z" fill="#C2D8DE"/>
<path d="M143.627 168.22C143.256 168.219 142.9 168.062 142.633 167.782C142.367 167.501 142.212 167.12 142.201 166.718C142.075 162.488 141.858 147.852 144.371 137.106C145.057 134.171 146.596 131.553 148.761 129.638C150.926 127.724 153.602 126.615 156.394 126.476C159.142 126.314 161.867 127.093 164.183 128.703C166.499 130.313 168.288 132.672 169.297 135.446C173.52 147.064 177.51 161.384 172.536 163.63C166.016 166.573 148.828 167.885 143.715 168.217C143.686 168.219 143.656 168.22 143.627 168.22Z" fill="#E3B1D8"/>
<path d="M173.49 106.332C173.613 106.468 173.746 106.594 173.887 106.708L173.066 123.78L169.655 125.673L171.618 131.625L177.958 128.91C178.47 128.691 178.903 128.298 179.191 127.789C179.48 127.281 179.608 126.685 179.557 126.09L177.896 106.725C178.439 106.286 178.847 105.678 179.063 104.982C179.28 104.285 179.296 103.534 179.109 102.828C178.922 102.121 178.541 101.494 178.017 101.028C177.492 100.562 176.849 100.28 176.174 100.219C175.498 100.159 174.821 100.323 174.233 100.689C173.645 101.056 173.175 101.608 172.883 102.271C172.592 102.935 172.494 103.679 172.603 104.404C172.711 105.129 173.021 105.802 173.49 106.332Z" fill="#A0616A"/>
<path d="M173.131 124.415L175.531 131.805C175.599 132.015 175.625 132.239 175.606 132.461C175.588 132.683 175.525 132.898 175.423 133.091C175.32 133.285 175.181 133.452 175.013 133.582C174.846 133.711 174.655 133.8 174.453 133.843L167.376 135.328C166.381 135.7 165.291 135.63 164.343 135.133C163.396 134.635 162.67 133.751 162.323 132.674C161.977 131.597 162.038 130.415 162.495 129.388C162.952 128.36 163.766 127.571 164.759 127.192L171.113 123.558C171.295 123.454 171.495 123.394 171.701 123.381C171.906 123.369 172.112 123.405 172.303 123.486C172.495 123.567 172.668 123.692 172.811 123.853C172.954 124.013 173.063 124.205 173.131 124.415V124.415Z" fill="#E3B1D8"/>
<path d="M139.645 106.332C139.522 106.468 139.39 106.594 139.249 106.708L140.069 123.78L143.48 125.673L141.517 131.625L135.177 128.91C134.665 128.691 134.232 128.298 133.944 127.789C133.656 127.281 133.527 126.685 133.578 126.09L135.239 106.725C134.696 106.286 134.289 105.678 134.072 104.982C133.855 104.285 133.839 103.534 134.026 102.828C134.213 102.121 134.594 101.494 135.119 101.028C135.643 100.562 136.286 100.28 136.962 100.219C137.638 100.159 138.314 100.323 138.902 100.689C139.49 101.056 139.961 101.608 140.252 102.271C140.543 102.935 140.641 103.679 140.533 104.404C140.424 105.129 140.115 105.802 139.645 106.332H139.645Z" fill="#A0616A"/>
<path d="M140.834 123.486C141.025 123.405 141.231 123.369 141.436 123.381C141.641 123.394 141.842 123.454 142.024 123.558L148.378 127.192C149.371 127.571 150.185 128.36 150.642 129.388C151.098 130.416 151.16 131.597 150.814 132.674C150.467 133.751 149.741 134.635 148.793 135.133C147.846 135.63 146.756 135.7 145.761 135.328L138.684 133.843C138.482 133.801 138.291 133.712 138.123 133.582C137.956 133.452 137.816 133.285 137.714 133.092C137.612 132.898 137.549 132.683 137.53 132.461C137.512 132.239 137.537 132.016 137.606 131.805L140.006 124.415C140.074 124.205 140.183 124.013 140.326 123.853C140.469 123.692 140.642 123.567 140.834 123.486Z" fill="#E3B1D8"/>
<path d="M159.869 116.33C159.828 115.25 160.078 114.18 160.589 113.252C161.1 112.323 161.849 111.576 162.745 111.102C165.12 109.773 166.613 106.939 165.959 104.352C165.122 101.04 160.961 98.8914 157.59 100.031C156.678 100.382 155.798 100.825 154.962 101.354L152.76 102.634C151.819 103.144 150.912 103.724 150.045 104.37C148.746 105.407 147.729 106.803 147.098 108.411C146.467 110.02 146.247 111.782 146.46 113.515C146.893 116.882 148.928 119.97 151.714 122.085C152.78 122.947 154.01 123.54 155.315 123.819C156.65 124.057 158.137 123.786 159.113 122.886C160.639 121.48 160.482 119.125 159.988 117.159C159.923 116.887 159.883 116.61 159.869 116.33Z" fill="#2F2E41"/>
<path d="M186.423 240.49H125.979C125.894 240.49 125.813 240.454 125.754 240.389C125.694 240.325 125.661 240.237 125.661 240.145C125.661 240.054 125.694 239.966 125.754 239.902C125.813 239.837 125.894 239.801 125.979 239.801H186.423C186.508 239.801 186.588 239.837 186.648 239.902C186.708 239.966 186.741 240.054 186.741 240.145C186.741 240.237 186.708 240.325 186.648 240.389C186.588 240.454 186.508 240.49 186.423 240.49Z" fill="#CCCCCC"/>
<path d="M87.7751 177.606L37.8998 199.776C37.0433 200.156 36.0828 200.152 35.229 199.765C34.3752 199.378 33.698 198.64 33.3458 197.713L18.0782 157.389C17.8216 156.709 17.8243 155.947 18.0859 155.269C18.3474 154.591 18.8464 154.054 19.4734 153.774L71.0347 130.854C71.6731 130.572 72.3889 130.575 73.0252 130.863C73.6615 131.151 74.1663 131.701 74.4288 132.392L89.6796 172.672C90.0299 173.6 90.0261 174.641 89.669 175.566C89.312 176.491 88.6309 177.225 87.7751 177.606Z" fill="#E6E6E6"/>
<path d="M39.7058 194.887L83.3183 175.5C84.1488 175.131 84.8099 174.42 85.1563 173.522C85.5026 172.625 85.5058 171.615 85.165 170.716L72.8366 138.154C72.6679 137.709 72.4198 137.304 72.1066 136.962C71.7934 136.62 71.4211 136.349 71.011 136.163C70.6009 135.977 70.1611 135.881 69.7166 135.879C69.2721 135.877 68.8317 135.971 68.4205 136.153L24.808 155.539C24.3968 155.722 24.0228 155.991 23.7075 156.33C23.3921 156.67 23.1415 157.073 22.9701 157.518C22.7986 157.962 22.7095 158.438 22.708 158.92C22.7065 159.402 22.7926 159.879 22.9613 160.324L35.2898 192.886C35.4585 193.331 35.7065 193.736 36.0197 194.078C36.333 194.42 36.7052 194.691 37.1153 194.877C37.5254 195.063 37.9652 195.159 38.4097 195.161C38.8542 195.163 39.2946 195.069 39.7058 194.887Z" fill="white"/>
<path d="M72.5963 147.033L71.9551 147.318L71.9989 147.434L72.6401 147.149L72.5963 147.033Z" fill="#E6E6E6"/>
<path d="M70.7024 148.012L69.407 148.588L69.3632 148.472L70.6585 147.896L70.7024 148.012ZM68.1117 149.164L66.8164 149.74L66.7725 149.624L68.0678 149.048L68.1117 149.164ZM65.521 150.315L64.2257 150.891L64.1818 150.775L65.4772 150.2L65.521 150.315ZM62.9303 151.467L61.635 152.043L61.5911 151.927L62.8865 151.351L62.9303 151.467ZM60.3396 152.619L59.0443 153.194L59.0005 153.079L60.2958 152.503L60.3396 152.619ZM57.749 153.77L56.4536 154.346L56.4098 154.23L57.7051 153.654L57.749 153.77ZM55.1583 154.922L53.8629 155.498L53.8191 155.382L55.1144 154.806L55.1583 154.922ZM52.5676 156.073L51.2723 156.649L51.2284 156.533L52.5237 155.958L52.5676 156.073ZM49.9769 157.225L48.6816 157.801L48.6377 157.685L49.9331 157.109L49.9769 157.225ZM47.3862 158.377L46.0909 158.952L46.0471 158.837L47.3424 158.261L47.3862 158.377ZM44.7955 159.528L43.5002 160.104L43.4564 159.988L44.7517 159.412L44.7955 159.528ZM42.2049 160.68L40.9095 161.256L40.8657 161.14L42.161 160.564L42.2049 160.68ZM39.6142 161.831L38.3188 162.407L38.275 162.291L39.5703 161.716L39.6142 161.831ZM37.0235 162.983L35.7281 163.559L35.6843 163.443L36.9797 162.867L37.0235 162.983ZM34.4328 164.134L33.1375 164.71L33.0936 164.594L34.389 164.019L34.4328 164.134ZM31.8421 165.286L30.5468 165.862L30.5029 165.746L31.7983 165.17L31.8421 165.286Z" fill="#E6E6E6"/>
<path d="M29.2091 166.322L28.5679 166.607L28.6117 166.723L29.2529 166.438L29.2091 166.322Z" fill="#E6E6E6"/>
<path d="M55.6197 167.16L54.9785 167.445L55.0224 167.561L55.6635 167.276L55.6197 167.16Z" fill="#E6E6E6"/>
<path d="M53.7464 168.129L52.4703 168.697L52.4265 168.581L53.7026 168.014L53.7464 168.129ZM51.1942 169.264L49.9181 169.831L49.8743 169.715L51.1504 169.148L51.1942 169.264ZM48.642 170.398L47.3659 170.966L47.3221 170.85L48.5982 170.283L48.642 170.398ZM46.0898 171.533L44.8137 172.1L44.7699 171.984L46.046 171.417L46.0898 171.533ZM43.5376 172.667L42.2615 173.235L42.2176 173.119L43.4938 172.552L43.5376 172.667ZM40.9854 173.802L39.7093 174.369L39.6654 174.253L40.9415 173.686L40.9854 173.802ZM38.4332 174.936L37.1571 175.504L37.1132 175.388L38.3893 174.821L38.4332 174.936ZM35.881 176.071L34.6049 176.638L34.561 176.522L35.8371 175.955L35.881 176.071Z" fill="#E6E6E6"/>
<path d="M33.2857 177.088L32.6445 177.373L32.6884 177.489L33.3296 177.204L33.2857 177.088Z" fill="#E6E6E6"/>
<path d="M45.0465 177.815L44.4053 178.1L44.4491 178.215L45.0903 177.93L45.0465 177.815Z" fill="#E6E6E6"/>
<path d="M43.1368 178.797L41.8238 179.381L41.78 179.265L43.0929 178.682L43.1368 178.797ZM40.5109 179.965L39.198 180.548L39.1542 180.432L40.4671 179.849L40.5109 179.965ZM37.8851 181.132L36.5722 181.715L36.5283 181.6L37.8412 181.016L37.8851 181.132Z" fill="#E6E6E6"/>
<path d="M35.2144 182.184L34.5732 182.469L34.6171 182.585L35.2583 182.3L35.2144 182.184Z" fill="#E6E6E6"/>
<path d="M48.338 186.506L47.6968 186.791L47.7406 186.907L48.3818 186.622L48.338 186.506Z" fill="#E6E6E6"/>
<path d="M46.4278 187.493L45.1149 188.076L45.071 187.961L46.3839 187.377L46.4278 187.493ZM43.8019 188.66L42.489 189.244L42.4452 189.128L43.7581 188.544L43.8019 188.66ZM41.1761 189.827L39.8632 190.411L39.8193 190.295L41.1323 189.711L41.1761 189.827Z" fill="#E6E6E6"/>
<path d="M38.5069 190.877L37.8657 191.162L37.9096 191.278L38.5508 190.993L38.5069 190.877Z" fill="#E6E6E6"/>
<path d="M41.5571 189.761L78.5157 173.333C79.4102 172.934 80.1221 172.167 80.4953 171.2C80.8685 170.233 80.8724 169.145 80.5063 168.175L73.039 148.453L72.9668 148.488L63.8972 171.985L57.1705 168.938C57.0463 168.881 56.9118 168.856 56.7774 168.865C56.643 168.875 56.5123 168.917 56.3956 168.99C56.2205 169.104 56.085 169.278 56.0101 169.484L51.2568 181.797L46.3386 179.57C46.2325 179.522 46.1187 179.497 46.0036 179.496C45.8886 179.496 45.7746 179.52 45.6681 179.567C45.5617 179.614 45.4649 179.684 45.3833 179.772C45.3017 179.86 45.2369 179.964 45.1925 180.079C45.161 180.163 42.1285 188.225 41.5571 189.761Z" fill="url(#paint1_linear_1069_17992)"/>
<path d="M41.444 189.945L41.3374 189.897L45.1405 180.043C45.2412 179.783 45.433 179.577 45.6738 179.47C45.9146 179.363 46.1848 179.364 46.4251 179.472L51.2462 181.657L55.9723 169.412C56.073 169.151 56.2648 168.945 56.5056 168.838C56.7465 168.731 57.0166 168.732 57.2569 168.841L63.8865 171.844L73.0027 148.225L73.1093 148.273L63.9485 172.008L57.2123 168.956C57.1074 168.908 56.9948 168.884 56.881 168.883C56.7673 168.883 56.6546 168.907 56.5493 168.954C56.444 169 56.3483 169.069 56.2676 169.156C56.1869 169.243 56.1228 169.346 56.0789 169.46L51.3081 181.821L46.3805 179.588C46.1685 179.492 45.9301 179.491 45.7176 179.586C45.5052 179.68 45.3359 179.862 45.247 180.092L41.444 189.945Z" fill="#3F3D56"/>
<path d="M45.0688 178.748C45.5154 178.748 45.8774 178.356 45.8774 177.872C45.8774 177.388 45.5154 176.996 45.0688 176.996C44.6223 176.996 44.2603 177.388 44.2603 177.872C44.2603 178.356 44.6223 178.748 45.0688 178.748Z" fill="#3F3D56"/>
<path d="M55.6421 168.096C56.0886 168.096 56.4506 167.704 56.4506 167.22C56.4506 166.736 56.0886 166.344 55.6421 166.344C55.1955 166.344 54.8335 166.736 54.8335 167.22C54.8335 167.704 55.1955 168.096 55.6421 168.096Z" fill="#3F3D56"/>
<path d="M72.1079 147.938C72.5544 147.938 72.9164 147.545 72.9164 147.062C72.9164 146.578 72.5544 146.186 72.1079 146.186C71.6613 146.186 71.2993 146.578 71.2993 147.062C71.2993 147.545 71.6613 147.938 72.1079 147.938Z" fill="#3F3D56"/>
<path d="M26.8497 176.877C27.27 176.65 27.6394 176.326 27.9317 175.928C28.2241 175.53 28.4324 175.068 28.5418 174.573C28.6513 174.078 28.6594 173.564 28.5654 173.065C28.4715 172.567 28.2778 172.097 27.9981 171.688L30.3995 146.248H25.2098L23.3013 171.089C22.699 171.644 22.3055 172.419 22.1952 173.267C22.0849 174.115 22.2655 174.977 22.7029 175.691C23.1403 176.404 23.804 176.919 24.5683 177.137C25.3326 177.356 26.1443 177.263 26.8497 176.877Z" fill="#FFB8B8"/>
<path d="M31.6144 132.206C35.6695 132.206 38.9568 128.644 38.9568 124.251C38.9568 119.857 35.6695 116.295 31.6144 116.295C27.5593 116.295 24.272 119.857 24.272 124.251C24.272 128.644 27.5593 132.206 31.6144 132.206Z" fill="#FFB8B8"/>
<path d="M32.9966 161.062C32.7027 161.062 32.417 160.958 32.1832 160.765C31.9494 160.572 31.7805 160.301 31.7025 159.994C31.1142 157.678 29.5837 153.762 27.1536 148.356C26.6053 147.133 26.3016 145.799 26.2626 144.441C26.2236 143.083 26.45 141.731 26.9271 140.474C27.4042 139.217 28.1212 138.084 29.031 137.148C29.9407 136.213 31.0228 135.496 32.2061 135.046C33.3274 134.617 34.5168 134.436 35.7039 134.514C36.8909 134.591 38.0515 134.926 39.117 135.499C40.1825 136.071 41.1312 136.869 41.907 137.846C42.6828 138.822 43.27 139.957 43.6338 141.184C45.5174 147.583 45.4265 154.437 45.2999 157.086C45.2842 157.405 45.1724 157.71 44.9816 157.954C44.7908 158.198 44.5315 158.367 44.2435 158.436L33.2851 161.028C33.1904 161.051 33.0937 161.062 32.9966 161.062Z" fill="#FBBC05"/>
<path d="M43.6105 236.61H47.2753L49.019 221.293L43.6099 221.293L43.6105 236.61Z" fill="#FFB8B8"/>
<path d="M54.3423 240.297L42.8237 240.297L42.8235 235.475L49.8917 235.475C50.4761 235.475 51.0549 235.6 51.5948 235.842C52.1348 236.084 52.6254 236.439 53.0387 236.887C53.4519 237.335 53.7798 237.867 54.0034 238.452C54.2271 239.037 54.3423 239.664 54.3423 240.297Z" fill="#2F2E41"/>
<path d="M6.96143 231.462L10.1733 233.375L18.512 220.863L13.7722 218.039L6.96143 231.462Z" fill="#FFB8B8"/>
<path d="M14.7271 240.297L4.63331 234.284L6.77735 230.059L12.9712 233.748C14.0055 234.364 14.7716 235.4 15.1009 236.629C15.4302 237.857 15.2957 239.176 14.7271 240.297Z" fill="#2F2E41"/>
<path d="M43.4381 228.108C43.1116 228.107 42.7962 227.978 42.551 227.745C42.3057 227.511 42.1474 227.189 42.1054 226.838L37.5218 188.568C37.5016 188.399 37.4325 188.24 37.3244 188.116C37.2163 187.992 37.0748 187.908 36.92 187.876C36.7652 187.844 36.6051 187.866 36.4625 187.939C36.32 188.012 36.2023 188.131 36.1262 188.281L17.024 225.832C16.8663 226.139 16.6124 226.374 16.3083 226.495C16.0043 226.616 15.6702 226.615 15.367 226.491L11.2032 224.772C11.0358 224.703 10.8827 224.599 10.7531 224.465C10.6235 224.33 10.5199 224.17 10.4485 223.992C10.377 223.813 10.3391 223.622 10.337 223.428C10.3349 223.233 10.3686 223.041 10.4362 222.861L23.6688 187.639C23.7023 187.55 23.725 187.456 23.7364 187.36C25.5287 172.33 30.0888 164.686 31.4437 162.701C31.5427 162.556 31.6078 162.386 31.6336 162.207C31.6594 162.028 31.6451 161.845 31.592 161.674L31.4057 161.068C31.3313 160.828 31.3161 160.571 31.3615 160.322C31.4069 160.074 31.5114 159.842 31.6646 159.651C36.5468 153.625 45.0562 156.913 45.1416 156.947L45.1843 156.964L45.211 157.004C54.7526 171.182 51.2247 217.234 50.4207 226.321C50.3906 226.663 50.2501 226.982 50.0239 227.222C49.7978 227.462 49.5005 227.607 49.1848 227.633L43.5426 228.104C43.5075 228.106 43.4727 228.108 43.4381 228.108Z" fill="#5CBCA5"/>
<path d="M60.1594 133.493C60.1227 133.668 60.0988 133.845 60.0879 134.024L47.2459 142.051L44.1245 140.104L40.7969 144.824L46.0136 148.853C46.435 149.179 46.9425 149.347 47.4599 149.334C47.9773 149.32 48.4766 149.125 48.8829 148.777L62.1252 137.458C62.7228 137.698 63.3736 137.735 63.9911 137.564C64.6085 137.393 65.1633 137.022 65.5817 136.502C66 135.981 66.2621 135.334 66.3331 134.648C66.4041 133.962 66.2806 133.269 65.979 132.66C65.6775 132.052 65.2121 131.558 64.6449 131.243C64.0777 130.928 63.4356 130.808 62.8038 130.898C62.172 130.989 61.5806 131.285 61.1082 131.749C60.6359 132.212 60.3049 132.821 60.1594 133.493Z" fill="#FFB8B8"/>
<path d="M46.8187 142.432L42.6682 148.26C42.5501 148.426 42.4004 148.563 42.2293 148.66C42.0582 148.758 41.8697 148.814 41.6767 148.825C41.4837 148.837 41.2906 148.803 41.1107 148.726C40.9308 148.65 40.7683 148.532 40.6342 148.381L35.9356 143.094C35.1559 142.435 34.6495 141.467 34.5272 140.404C34.4049 139.34 34.6769 138.268 35.2834 137.421C35.8899 136.575 36.7814 136.023 37.7626 135.888C38.7438 135.753 39.7344 136.044 40.5174 136.699L46.4105 140.269C46.5792 140.372 46.7256 140.512 46.8397 140.681C46.9537 140.85 47.0328 141.044 47.0716 141.249C47.1103 141.455 47.1078 141.666 47.0641 141.871C47.0205 142.075 46.9368 142.266 46.8187 142.432Z" fill="#FBBC05"/>
<path d="M30.7309 152.559L24.0447 151.251C23.8545 151.213 23.6738 151.132 23.5152 151.013C23.3565 150.893 23.2235 150.738 23.1253 150.557C23.027 150.377 22.9657 150.176 22.9457 149.967C22.9257 149.759 22.9473 149.548 23.0092 149.35L25.1767 142.396C25.3579 141.343 25.9174 140.41 26.7323 139.803C27.5473 139.195 28.5513 138.963 29.5242 139.156C30.497 139.35 31.3594 139.954 31.9221 140.835C32.4848 141.716 32.702 142.804 32.526 143.858L32.3145 151.17C32.3084 151.38 32.2607 151.585 32.1747 151.773C32.0887 151.96 31.9663 152.126 31.8161 152.257C31.6658 152.389 31.491 152.484 31.3038 152.536C31.1165 152.588 30.9211 152.596 30.7309 152.559H30.7309Z" fill="#FBBC05"/>
<path d="M32.778 122.424C34.6652 123.823 37.1431 125.262 39.0705 123.771C39.6734 123.274 40.1114 122.578 40.3189 121.789C40.5265 120.999 40.4923 120.157 40.2217 119.391C39.2987 116.531 36.763 115.272 34.3382 114.307C31.186 113.052 27.7537 112.054 24.4996 112.953C21.2454 113.851 18.3695 117.265 18.957 120.847C19.4294 123.728 21.9374 126.126 21.5814 129.026C21.2231 131.945 18.1932 133.482 15.5183 134.004C12.8434 134.525 9.85018 134.693 7.92786 136.775C5.47557 139.43 6.08795 144.177 8.39544 146.981C10.7029 149.785 14.1851 151.056 17.5593 151.92C22.0299 153.065 26.8652 153.666 31.1111 151.767C35.3571 149.867 38.6612 144.752 37.4312 139.957C36.9117 137.931 35.6878 136.219 34.505 134.552C33.3222 132.886 32.1244 131.143 31.6733 129.098C31.2973 127.394 31.5755 125.416 32.6185 124.137C32.8082 123.914 32.9275 123.63 32.9595 123.329C32.9914 123.027 32.9342 122.722 32.7962 122.457L32.778 122.424Z" fill="#2F2E41"/>
<path d="M60.7625 240.49H0.318128C0.233756 240.49 0.152838 240.454 0.0931774 240.389C0.0335168 240.325 0 240.237 0 240.145C0 240.054 0.0335168 239.966 0.0931774 239.902C0.152838 239.837 0.233756 239.801 0.318128 239.801H60.7625C60.8469 239.801 60.9278 239.837 60.9875 239.902C61.0471 239.966 61.0807 240.054 61.0807 240.145C61.0807 240.237 61.0471 240.325 60.9875 240.389C60.9278 240.454 60.8469 240.49 60.7625 240.49Z" fill="#CCCCCC"/>
<defs>
<linearGradient id="paint0_linear_1069_17992" x1="271.623" y1="186.77" x2="271.623" y2="207.616" gradientUnits="userSpaceOnUse">
<stop stop-color="#113366"/>
<stop offset="1" stop-color="#6C63FF"/>
</linearGradient>
<linearGradient id="paint1_linear_1069_17992" x1="80.8037" y1="155.977" x2="25.4074" y2="186.042" gradientUnits="userSpaceOnUse">
<stop stop-color="#00B0FF"/>
<stop offset="1" stop-color="#172D6C"/>
</linearGradient>
</defs>
</svg>
